# xmcd
# 
# Track frame offsets:
#     150
#     16559
#     31567
#     48098
#     64858
#     83976
#     101060
#     119062
#     134986
#     152527
#     169493
#     186586
#     205028
#     225928
#     240222
#     252677
#     267231
#     289401
# 
# Disc length: 4069
# 
# Revision: 2
# Processed by: cddbd v1.5.2PL0 Copyright (c) Steve Scherf et al.
# Submitted via: fre:ac v1.0.31
# 
DISCID=fc0fe312
DTITLE=Now That's What I Call Music - Now That's What I Call Country  # 1's
DYEAR=2016
DGENRE=Country
TTITLE0=Keith Urban - John Cougar, John Deere, John 3:16
TTITLE1=Luke Bryan - Drink a Beer
TTITLE2=Jason Aldean - Burnin' It Down
TTITLE3=Carrie Underwood - Jesus, Take the Wheel
TTITLE4=Lady Antebellum - I Run to You
TTITLE5=Hunter Hayes - Wanted
TTITLE6=Sam Hunt - Take Your Time
TTITLE7=Rascal Flatts - What Hurts the Most
TTITLE8=Miranda Lambert - The House That Built Me
TTITLE9=Brad Paisley - She's Everything
TTITLE10=Brett Eldredge - Mean to Me
TTITLE11=Kenny Chesney - Come Over
TTITLE12=Dierks Bentley - I Hold On
TTITLE13=Cole Swindell - Ain't Worth the Whiskey
TTITLE14=Jake Owen - Barefoot Blue Jean Night
TTITLE15=Tyler Farr - A Guy Walks Into a Bar
TTITLE16=Darius Rucker - Wagon Wheel
TTITLE17=Little Big Town - Pontoon
EXTD=
EXTT0=
EXTT1=
EXTT2=
EXTT3=
EXTT4=
EXTT5=
EXTT6=
EXTT7=
EXTT8=
EXTT9=
EXTT10=
EXTT11=
EXTT12=
EXTT13=
EXTT14=
EXTT15=
EXTT16=
EXTT17=
PLAYORDER=
